<svg width="88" height="50" viewBox="0 0 88 50" fill="none" xmlns="http://www.w3.org/2000/svg">
<path d="M75.2422 22.5727C80.5464 19.3166 84.8232 14.6274 87.9949 9.32462C88.1536 15.0147 84.6016 19.9809 80.2648 23.3592C73.2685 28.8855 64.7418 31.9182 56.5475 35.2072C55.7718 34.7007 54.9901 34.2002 54.2144 33.6938C61.2826 30.095 68.4676 26.7048 75.2422 22.5727Z" fill="#B6CD09"/>
<path d="M58.3055 35.9698C68.7461 33.5359 78.6865 28.6591 86.4075 21.1785C85.1796 25.8825 82.0019 29.9222 77.788 32.3651C72.981 35.2429 67.4043 36.6699 61.8636 37.2687C60.5368 37.4773 59.4526 36.4554 58.3055 35.9698Z" fill="#B6CD09"/>
<path d="M63.7234 38.505C70.0609 37.3074 76.9793 36.4435 82.0079 32.0314C80.738 34.5071 79.1297 36.9768 76.6109 38.3412C72.7144 40.647 67.7547 40.2746 63.7234 38.505Z" fill="#B6CD09"/>
<path d="M5.20132 0C6.98035 2.27008 8.81029 4.51931 11.1015 6.3038C22.749 15.6612 35.0045 24.2768 47.9518 31.7722C52.5372 34.6203 57.395 36.9976 61.9953 39.8248C53.7292 37.4415 45.7415 34.1287 38.1762 30.0533C30.0538 25.9421 21.9373 21.7148 14.5517 16.3613C10.3827 13.6205 7.16604 9.53614 5.35107 4.92447C4.66822 3.34852 4.87787 1.63255 5.20132 0Z" fill="#174B99"/>
<path d="M0.00504411 6.77451C1.96377 9.46464 4.06625 12.0922 6.68687 14.1895C12.8236 19.0157 19.5833 22.9839 26.4299 26.7256C36.3403 32.4515 47.1552 36.3422 57.8323 40.367C50.836 39.5447 44.2321 36.9768 37.6161 34.7067C28.8169 31.3522 19.9277 28.1318 11.5957 23.7286C5.62365 20.0822 -0.19562 14.264 0.00504411 6.77451Z" fill="#174B99"/>
<path d="M7.10321 24.5568C21.584 32.8954 37.7749 37.513 53.9509 41.2965C48.2244 40.8526 42.519 40.1316 36.8225 39.4196C29.5686 38.362 22.0602 37.507 15.4862 34.0304C11.6676 32.0463 8.13648 28.8825 7.10321 24.5568Z" fill="#174B99"/>
<path d="M18.0408 38.0671C28.682 41.2279 39.8923 42.0085 50.9288 42.4941C46.2207 44.3143 41.0603 44.7701 36.0527 45.0144C29.5356 45.0859 22.0961 43.6738 18.0408 38.0701" fill="#174B99"/>
<path d="M30.0238 47.0253C36.7685 47.4543 43.4503 46.1256 50.1022 45.205C46.047 48.1305 41.1322 50.63 35.9719 49.8584C33.7106 49.629 31.7879 48.3391 30.0238 47.0253Z" fill="#174B99"/>
</svg>
